# xmcd
#
# Track frame offsets:
#	150
#	11154
#	30086
#	44882
#	60410
#	75843
#	94471
#	111939
#	122594
#	140841
#	154998
#	174973
#
# Disc length: 2543 seconds
# Revision: 1
# Processed by: cddbd v1.5.2PL0 Copyright (c) Steve Scherf et al.
# Submitted via: dBpowerAMP V12.0
#
DISCID=9809ed0c
DTITLE=Eric Uglum, Christian Ward and Austin Ward - The Old Road to Jerusalem
DYEAR=2007
DGENRE=Country
TTITLE0=Paper Heart
TTITLE1=The Old Road to Jerusalem
TTITLE2=Stonewall
TTITLE3=Love Has No Pride
TTITLE4=Old Blue
TTITLE5=The First Train Robbery
TTITLE6=Sweet Memory Waltz
TTITLE7=Undecided
TTITLE8=Life's Railway to Heaven
TTITLE9=Pretty Little Miss
TTITLE10=Sidney the Pirate
TTITLE11=Edelweiss
EXTD=
EXTT0=
EXTT1=
EXTT2=
EXTT3=
EXTT4=
EXTT5=
EXTT6=
EXTT7=
EXTT8=
EXTT9=
EXTT10=
EXTT11=
PLAYORDER=
